<?xml version="1.0" encoding="UTF-8" standalone="no"?>
<!-- Created with Inkscape (http://www.inkscape.org/) -->

<svg
   xmlns:dc="http://purl.org/dc/elements/1.1/"
   xmlns:cc="http://creativecommons.org/ns#"
   xmlns:rdf="http://www.w3.org/1999/02/22-rdf-syntax-ns#"
   xmlns:svg="http://www.w3.org/2000/svg"
   xmlns="http://www.w3.org/2000/svg"
   xmlns:sodipodi="http://sodipodi.sourceforge.net/DTD/sodipodi-0.dtd"
   xmlns:inkscape="http://www.inkscape.org/namespaces/inkscape"
   width="210mm"
   height="297mm"
   viewBox="0 0 210 297"
   version="1.1"
   id="svg8"
   inkscape:version="0.92.1 r15371"
   sodipodi:docname="404icon.svg">
  <defs
     id="defs2" />
  <sodipodi:namedview
     id="base"
     pagecolor="#ffffff"
     bordercolor="#666666"
     borderopacity="1.0"
     inkscape:pageopacity="0.0"
     inkscape:pageshadow="2"
     inkscape:zoom="0.29065211"
     inkscape:cx="390.28123"
     inkscape:cy="685.35943"
     inkscape:document-units="mm"
     inkscape:current-layer="layer1"
     showgrid="false"
     inkscape:snap-global="false"
     inkscape:window-width="1366"
     inkscape:window-height="705"
     inkscape:window-x="-8"
     inkscape:window-y="-8"
     inkscape:window-maximized="1" />
  <metadata
     id="metadata5">
    <rdf:RDF>
      <cc:Work
         rdf:about="">
        <dc:format>image/svg+xml</dc:format>
        <dc:type
           rdf:resource="http://purl.org/dc/dcmitype/StillImage" />
        <dc:title></dc:title>
      </cc:Work>
    </rdf:RDF>
  </metadata>
  <g
     inkscape:label="Capa 1"
     inkscape:groupmode="layer"
     id="layer1"
     style="display:inline">
    <g
       id="g4553"
       transform="translate(1.8206187,11.834022)">
      <path
         id="path4496"
         transform="scale(0.26458333)"
         d="m 471.42773,516.80469 -337.75585,47.98828 c 0,0 -24.90418,19.39803 -25.09961,49.15625 -0.2226,33.89389 19.69335,67.71094 19.69335,67.71094 10e-6,0 -24.65528,2.91145 -25.4082,12.28906 -0.93039,11.58799 18.25,14.83789 18.25,14.83789 16.30507,14.95389 15.24545,40.85607 11.15039,57.44922 0,0 -39.18463,4.29925 -39.416013,18.86328 -0.09546,6.00843 16.005863,8.29492 16.005863,8.29492 -36.683384,50.21155 -12.520575,88.0641 5.4082,112.25977 l 231.45898,71.15039 c 0,0 270.25984,-58.81182 316.5586,-78.55664 14.54252,-6.20191 -37.97266,-21.44336 -37.97266,-21.44336 l 4.85352,-51.1211 c 0,0 26.48968,-7.42622 27.09765,-18.31054 0.37599,-6.73108 -15.39257,-13.11719 -15.39257,-13.11719 48.04632,-43.90972 16.24596,-79.47271 10.56835,-105.4082 0,0 30.59104,-2.58725 30.56836,-13.76172 -0.0302,-15.42637 -42.27343,-18.83399 -42.27343,-18.83399 0.76932,-19.429 -3.82975,-46.37392 7.40429,-51.15234 0,0 34.60963,-18.58085 24.30078,-22.58008 -34.79758,-13.49938 -200,-65.71484 -200,-65.71484 z m -318.4414,74.49804 c 7.15347,-0.0717 13.31054,2.92188 13.31055,2.92188 l 191.98437,64.02539 2.30273,66.54297 -215.73046,-58.86328 c 0,0 -15.21373,-19.03835 -13.42579,-46.26758 1.51732,-23.10764 12.36127,-28.2672 21.5586,-28.35938 z m 478.4414,11.2168 c -10.40549,28.3985 -5.95213,41.9396 -5.71289,59.69336 l -254.28711,63.16406 -2.85546,-65.71484 z m -2.85546,97.14258 c 27.8657,27.19204 10.03041,51.84483 -1.72071,76.83594 l -207.98828,57.75781 -1.7207,-66.02148 z M 141.68945,714.83789 400,767.92773 403.13477,835.39258 145.99023,771.0918 c 4.86474,-18.75092 4.57665,-37.50299 -4.30078,-56.25391 z m -14.83789,92.8418 210.29102,69.125 v 71.42969 l -212.5957,-63.16407 c -13.29984,-14.80342 -19.77367,-61.54 2.30468,-77.39062 z m 481.72071,17.69726 v 54.28516 l -258.86329,68.60156 2.58008,-70.04492 z"
         style="fill:#000000;stroke:none;stroke-width:0.99999994px;stroke-linecap:butt;stroke-linejoin:miter;stroke-opacity:1"
         inkscape:connector-curvature="0" />
      <path
         inkscape:connector-curvature="0"
         id="path4533"
         d="M 83.748461,159.54328 58.259799,131.32369 c 0,0 20.026805,-28.21959 20.937114,-31.860823 0.91031,-3.641239 17.295879,-29.1299 17.295879,-29.1299 l 30.950518,25.488661 8.19278,29.129902 -6.37216,25.48866 -24.57836,12.74433 z"
         style="fill:#000000;fill-opacity:0.37860083;stroke:none;stroke-width:0.26458332px;stroke-linecap:butt;stroke-linejoin:miter;stroke-opacity:1" />
      <path
         sodipodi:nodetypes="csscsscssscsccscsssc"
         inkscape:connector-curvature="0"
         id="path4531"
         d="m 87.894851,159.65842 c 0,0 -30.45821,-1.3864 -33.495047,-34.77348 C 53.26005,112.35446 64.572603,101.82153 68.462618,89.855756 71.234665,81.32888 66.378289,72.131093 58.235114,73.236075 61.342194,68.715936 70.508119,63.519956 81.24698,70.423517 82.812782,71.430104 72.65959,47.269029 85.593672,32.326093 99.700115,16.028707 119.08872,29.76922 119.08872,29.76922 c -6.92139,0.158964 -14.50113,1.422148 -11.76162,16.875368 1.5679,8.844314 30.67618,34.57208 36.3076,55.484162 3.31281,12.30202 1.68535,24.52648 -2.55687,35.79623 -6.11022,16.2323 -29.65973,22.75619 -29.65973,22.75619 0,0 12.57783,-7.96855 16.1083,-28.12561 1.41099,-8.056 -5.11374,-13.55143 -5.11374,-13.55143 -3.90462,7.78769 -9.82581,11.54225 -19.17655,8.43769 0,0 8.01332,-5.89138 8.43768,-18.15381 0.46593,-13.46394 -15.085564,-24.801687 -15.085564,-24.801687 0,0 2.56513,10.920047 0.767069,16.363987 -3.256428,9.85942 -15.30591,16.52229 -19.432245,26.08013 -2.212376,5.12453 -3.044331,9.66607 -2.55687,14.57418 1.014167,10.21156 12.528671,18.1538 12.528671,18.1538 z"
         style="fill:#344955;fill-opacity:1;stroke:none;stroke-width:0.29726434px;stroke-linecap:butt;stroke-linejoin:miter;stroke-opacity:1" />
    </g>
  </g>
</svg>
