<?xml version="1.0" encoding="UTF-8" standalone="no"?>
<!-- Created with Inkscape (http://www.inkscape.org/) -->

<svg
   xmlns:dc="http://purl.org/dc/elements/1.1/"
   xmlns:cc="http://creativecommons.org/ns#"
   xmlns:rdf="http://www.w3.org/1999/02/22-rdf-syntax-ns#"
   xmlns:svg="http://www.w3.org/2000/svg"
   xmlns="http://www.w3.org/2000/svg"
   xmlns:sodipodi="http://sodipodi.sourceforge.net/DTD/sodipodi-0.dtd"
   xmlns:inkscape="http://www.inkscape.org/namespaces/inkscape"
   version="1.1"
   id="svg4519"
   width="512"
   height="512"
   viewBox="0 0 511.99999 511.99999"
   sodipodi:docname="book.svg"
   inkscape:export-filename="C:\Users\Idznak\Documents\eclipse-workspace\BlackBooks\WebContent\img\book.png"
   inkscape:export-xdpi="96"
   inkscape:export-ydpi="96"
   inkscape:version="0.92.1 r15371">
  <metadata
     id="metadata4525">
    <rdf:RDF>
      <cc:Work
         rdf:about="">
        <dc:format>image/svg+xml</dc:format>
        <dc:type
           rdf:resource="http://purl.org/dc/dcmitype/StillImage" />
        <dc:title></dc:title>
      </cc:Work>
    </rdf:RDF>
  </metadata>
  <defs
     id="defs4523" />
  <sodipodi:namedview
     pagecolor="#ffffff"
     bordercolor="#666666"
     borderopacity="1"
     objecttolerance="10"
     gridtolerance="10"
     guidetolerance="10"
     inkscape:pageopacity="0"
     inkscape:pageshadow="2"
     inkscape:window-width="1366"
     inkscape:window-height="705"
     id="namedview4521"
     showgrid="false"
     inkscape:zoom="0.55336508"
     inkscape:cx="53.310196"
     inkscape:cy="53.310196"
     inkscape:window-x="-8"
     inkscape:window-y="-8"
     inkscape:window-maximized="1"
     inkscape:current-layer="svg4519" />
  <path
     inkscape:connector-curvature="0"
     id="path5074"
     d="M 100.93963,495.40557 C 76.490062,490.58129 57.127255,470.57146 53.2547,446.12756 52.417815,440.84477 51.977254,374.7627 51.985263,255.69652 51.997406,56.184597 51.707393,64.367858 59.332369,49.262753 67.829088,32.430878 86.836774,19.447176 105.47407,17.744497 l 4.35627,-0.398276 0.62233,150.100099 c 0.67513,162.839 0.29268,154.79543 7.32049,153.96799 2.40005,-0.28268 8.49481,-6.61581 24.91453,-25.88936 11.95548,-14.0334 22.13449,-25.51526 22.62003,-25.51526 0.4856,0 10.19472,11.62189 21.57597,25.8264 22.01169,27.47207 23.74098,28.86259 28.85995,23.20673 2.2965,-2.53736 2.39062,-7.321 2.99337,-152.15817 L 219.35933,17.346221 330.7553,16.981944 c 78.69581,-0.257422 112.79439,0.03886 116.15985,1.01235 8.92462,2.57908 8.36626,-10.8272815 8.00603,192.227306 l -0.32343,182.31704 -2.83469,2.8349 -2.83468,2.8349 -172.66063,0.62233 -172.66063,0.62233 -6.953195,3.26076 c -14.068539,6.5975 -22.262141,18.93206 -22.283862,33.54578 -0.01797,12.00433 2.888405,19.17602 11.097438,27.38502 12.082734,12.08273 -3.958587,11.10962 183.131989,11.10962 h 163.92658 l 0.75048,-2.80046 c 0.41275,-1.54026 0.75816,-10.7197 0.7675,-20.39883 0.0189,-19.9513 0.92441,-22.37656 8.82303,-23.6404 3.58392,-0.57347 5.1581,-0.10297 8.09021,2.41695 l 3.64044,3.12894 0.40017,25.31433 c 0.46924,29.68187 -0.30896,33.95804 -6.66227,36.61265 -3.5979,1.50325 -29.5563,1.75207 -171.99367,1.64857 -125.94967,-0.0918 -169.66173,-0.49809 -175.40231,-1.6307 z"
     style="fill:#344955;fill-opacity:1;stroke:none;stroke-width:1.2446475" />
</svg>
