<?xml version="1.0" encoding="UTF-8" standalone="no"?>
<!-- Created with Inkscape (http://www.inkscape.org/) -->

<svg
   xmlns:dc="http://purl.org/dc/elements/1.1/"
   xmlns:cc="http://creativecommons.org/ns#"
   xmlns:rdf="http://www.w3.org/1999/02/22-rdf-syntax-ns#"
   xmlns:svg="http://www.w3.org/2000/svg"
   xmlns="http://www.w3.org/2000/svg"
   xmlns:sodipodi="http://sodipodi.sourceforge.net/DTD/sodipodi-0.dtd"
   xmlns:inkscape="http://www.inkscape.org/namespaces/inkscape"
   width="512"
   height="512"
   viewBox="0 0 135.46666 135.46667"
   version="1.1"
   id="svg8"
   inkscape:version="0.92.1 r15371"
   sodipodi:docname="close.svg"
   inkscape:export-filename="C:\Users\Idznak\Documents\eclipse-workspace\BlackBooks\WebContent\img\close.png"
   inkscape:export-xdpi="96"
   inkscape:export-ydpi="96">
  <defs
     id="defs2" />
  <sodipodi:namedview
     id="base"
     pagecolor="#ffffff"
     bordercolor="#666666"
     borderopacity="1.0"
     inkscape:pageopacity="0.0"
     inkscape:pageshadow="2"
     inkscape:zoom="0.48680402"
     inkscape:cx="349.82371"
     inkscape:cy="94.679309"
     inkscape:document-units="mm"
     inkscape:current-layer="layer1"
     showgrid="false"
     fit-margin-top="0"
     fit-margin-left="0"
     fit-margin-right="0"
     fit-margin-bottom="0"
     units="px"
     inkscape:window-width="1366"
     inkscape:window-height="705"
     inkscape:window-x="-8"
     inkscape:window-y="-8"
     inkscape:window-maximized="1" />
  <metadata
     id="metadata5">
    <rdf:RDF>
      <cc:Work
         rdf:about="">
        <dc:format>image/svg+xml</dc:format>
        <dc:type
           rdf:resource="http://purl.org/dc/dcmitype/StillImage" />
        <dc:title></dc:title>
      </cc:Work>
    </rdf:RDF>
  </metadata>
  <g
     inkscape:label="Capa 1"
     inkscape:groupmode="layer"
     id="layer1"
     transform="translate(-9.7863439,25.601959)">
    <path
       inkscape:connector-curvature="0"
       id="path4498"
       d="M 27.954987,82.64323 C 13.715241,64.974044 9.710225,40.914041 17.526002,19.991436 c 3.267436,-8.74683 7.035744,-14.8659986 13.243216,-21.50504 12.418151,-13.281487 28.848291,-20.407493 46.960265,-20.367421 22.695257,0.05022 43.257077,11.774525 55.019977,31.3722641 2.79156,4.6509189 5.61596,11.6226069 6.99205,17.2590519 6.16437,25.249164 -3.43281,51.694056 -24.32498,67.02723 C 104.45313,101.82375 91.010188,106.14829 77.239936,106.05876 63.514609,105.96953 50.468619,101.66613 39.523142,93.617398 36.43043,91.343186 30.2128,85.444801 27.954987,82.64323 Z m 40.679738,-17.641021 8.921666,-8.657383 8.883271,8.696785 8.883273,8.696791 6.729865,-6.567216 c 3.74273,-3.652379 6.78992,-6.807643 6.86531,-7.108777 0.11604,-0.463703 -1.10488,-1.804413 -8.49505,-9.328605 l -8.6306,-8.787073 8.62587,-8.587781 c 5.72639,-5.701098 8.62617,-8.746952 8.6268,-9.061219 6e-4,-0.309235 -2.2988,-2.783339 -6.62996,-7.133708 -5.649444,-5.674503 -6.712562,-6.642041 -7.182845,-6.537067 -0.322151,0.07192 -4.103664,3.656357 -9.082299,8.608991 l -8.530396,8.485714 -8.492767,-8.52339 c -4.951152,-4.96959 -8.722536,-8.575905 -9.043929,-8.649272 -0.463865,-0.105895 -1.558414,0.855039 -6.90495,6.061946 -3.988853,3.88461 -6.495481,6.501697 -6.734665,7.031121 l -0.380963,0.843346 8.66345,8.701877 8.663466,8.701892 -8.651119,8.612919 c -6.484246,6.455612 -8.651424,8.750005 -8.652323,9.160287 -9.08e-4,0.410485 1.702903,2.229193 6.812921,7.272308 l 6.814142,6.72494 z"
       style="fill:#f9aa33;fill-opacity:1;stroke:none;stroke-width:0.31873482" />
  </g>
</svg>
